<svg xmlns="http://www.w3.org/2000/svg" viewBox="0 0 512 512" width="512" height="512" role="img" aria-label="기숙사 ERP">
  <rect width="512" height="512" rx="104" fill="#0F172A"/>
  <!-- building body -->
  <rect x="150" y="118" width="212" height="296" rx="14" fill="#F1F5F9"/>
  <!-- windows -->
  <g fill="#0F172A">
    <rect x="178" y="150" width="44" height="44" rx="6"/>
    <rect x="234" y="150" width="44" height="44" rx="6"/>
    <rect x="290" y="150" width="44" height="44" rx="6"/>
    <rect x="178" y="214" width="44" height="44" rx="6"/>
    <rect x="234" y="214" width="44" height="44" rx="6"/>
    <rect x="290" y="214" width="44" height="44" rx="6"/>
    <rect x="178" y="278" width="44" height="44" rx="6"/>
    <rect x="234" y="278" width="44" height="44" rx="6"/>
    <rect x="290" y="278" width="44" height="44" rx="6"/>
    <!-- door -->
    <rect x="232" y="344" width="48" height="70" rx="8"/>
  </g>
  <!-- roof accent -->
  <rect x="150" y="100" width="212" height="26" rx="13" fill="#38BDF8"/>
</svg>
